<?xml version="1.0" encoding="UTF-8" standalone="no"?>
<svg xmlns:dc="http://purl.org/dc/elements/1.1/" xmlns:cc="http://creativecommons.org/ns#" xmlns:rdf="http://www.w3.org/1999/02/22-rdf-syntax-ns#" xmlns:svg="http://www.w3.org/2000/svg" xmlns="http://www.w3.org/2000/svg" xmlns:sodipodi="http://sodipodi.sourceforge.net/DTD/sodipodi-0.dtd" xmlns:inkscape="http://www.inkscape.org/namespaces/inkscape" width="48" height="48" viewBox="0 0 48 48" id="svg6485" version="1.1" inkscape:version="0.91 r" sodipodi:docname="construction-civil-engineer-helmet-protection-safety.svg">
  <defs id="defs6487">
    <inkscape:path-effect is_visible="true" id="path-effect5312" effect="spiro"/>
    <inkscape:path-effect is_visible="true" id="path-effect5302" effect="spiro"/>
    <inkscape:path-effect effect="spiro" id="path-effect5298" is_visible="true"/>
    <inkscape:path-effect is_visible="true" id="path-effect5294" effect="spiro"/>
    <inkscape:path-effect is_visible="true" id="path-effect5284" effect="spiro"/>
    <inkscape:path-effect effect="spiro" id="path-effect5280" is_visible="true"/>
    <inkscape:path-effect effect="spiro" id="path-effect5806" is_visible="true"/>
    <inkscape:path-effect effect="spiro" id="path-effect5802" is_visible="true"/>
    <inkscape:path-effect is_visible="true" id="path-effect5798" effect="spiro"/>
    <inkscape:path-effect effect="spiro" id="path-effect5794" is_visible="true"/>
    <inkscape:path-effect is_visible="true" id="path-effect5790" effect="spiro"/>
    <inkscape:path-effect effect="spiro" id="path-effect5786" is_visible="true"/>
    <inkscape:path-effect is_visible="true" id="path-effect5697" effect="spiro"/>
    <inkscape:path-effect effect="spiro" id="path-effect5694" is_visible="true"/>
    <inkscape:path-effect is_visible="true" id="path-effect5691" effect="spiro"/>
    <inkscape:path-effect effect="spiro" id="path-effect5688" is_visible="true"/>
    <inkscape:path-effect effect="spiro" id="path-effect5661" is_visible="true"/>
    <inkscape:path-effect is_visible="true" id="path-effect5657" effect="spiro"/>
    <inkscape:path-effect effect="spiro" id="path-effect5653" is_visible="true"/>
    <inkscape:path-effect is_visible="true" id="path-effect5645" effect="spiro"/>
    <inkscape:path-effect effect="spiro" id="path-effect5641" is_visible="true"/>
    <inkscape:path-effect is_visible="true" id="path-effect5618" effect="spiro"/>
    <inkscape:path-effect effect="spiro" id="path-effect5615" is_visible="true"/>
    <inkscape:path-effect is_visible="true" id="path-effect5612" effect="spiro"/>
    <inkscape:path-effect effect="spiro" id="path-effect5609" is_visible="true"/>
    <inkscape:path-effect is_visible="true" id="path-effect5581" effect="spiro"/>
    <inkscape:path-effect effect="spiro" id="path-effect5577" is_visible="true"/>
    <inkscape:path-effect is_visible="true" id="path-effect5573" effect="spiro"/>
    <inkscape:path-effect effect="spiro" id="path-effect5569" is_visible="true"/>
    <inkscape:path-effect is_visible="true" id="path-effect5554" effect="spiro"/>
    <inkscape:path-effect effect="spiro" id="path-effect5550" is_visible="true"/>
    <inkscape:path-effect is_visible="true" id="path-effect5546" effect="spiro"/>
    <inkscape:path-effect effect="spiro" id="path-effect5542" is_visible="true"/>
    <inkscape:path-effect is_visible="true" id="path-effect5538" effect="spiro"/>
    <inkscape:path-effect effect="spiro" id="path-effect5534" is_visible="true"/>
    <inkscape:path-effect is_visible="true" id="path-effect5226" effect="spiro"/>
    <inkscape:path-effect effect="spiro" id="path-effect5222" is_visible="true"/>
    <inkscape:path-effect effect="spiro" id="path-effect5218" is_visible="true"/>
    <inkscape:path-effect effect="spiro" id="path-effect5076" is_visible="true"/>
    <inkscape:path-effect effect="spiro" id="path-effect5071" is_visible="true"/>
    <inkscape:path-effect effect="spiro" id="path-effect4153" is_visible="true"/>
    <inkscape:path-effect is_visible="true" id="path-effect4239" effect="spiro"/>
    <inkscape:path-effect effect="spiro" id="path-effect4223" is_visible="true"/>
    <inkscape:path-effect is_visible="true" id="path-effect4217" effect="spiro"/>
    <inkscape:path-effect effect="spiro" id="path-effect4213" is_visible="true"/>
    <inkscape:path-effect effect="spiro" id="path-effect5296" is_visible="true"/>
    <inkscape:path-effect effect="spiro" id="path-effect7060" is_visible="true"/>
    <inkscape:path-effect effect="spiro" id="path-effect4979" is_visible="true"/>
    <inkscape:path-effect is_visible="true" id="path-effect5573-2" effect="spiro"/>
    <inkscape:path-effect effect="spiro" id="path-effect5688-9" is_visible="true"/>
    <inkscape:path-effect is_visible="true" id="path-effect5573-2-4" effect="spiro"/>
    <inkscape:path-effect effect="spiro" id="path-effect5641-9" is_visible="true"/>
    <inkscape:path-effect is_visible="true" id="path-effect5645-8" effect="spiro"/>
    <inkscape:path-effect effect="spiro" id="path-effect5569-1" is_visible="true"/>
    <inkscape:path-effect is_visible="true" id="path-effect5573-6" effect="spiro"/>
    <inkscape:path-effect effect="spiro" id="path-effect5577-3" is_visible="true"/>
    <inkscape:path-effect is_visible="true" id="path-effect5581-9" effect="spiro"/>
    <inkscape:path-effect effect="spiro" id="path-effect5534-3" is_visible="true"/>
    <inkscape:path-effect effect="spiro" id="path-effect5542-3" is_visible="true"/>
    <inkscape:path-effect is_visible="true" id="path-effect5546-4" effect="spiro"/>
    <inkscape:path-effect effect="spiro" id="path-effect5550-6" is_visible="true"/>
    <inkscape:path-effect is_visible="true" id="path-effect5554-1" effect="spiro"/>
    <inkscape:path-effect effect="spiro" id="path-effect5222-5" is_visible="true"/>
    <inkscape:path-effect is_visible="true" id="path-effect5226-6" effect="spiro"/>
    <inkscape:path-effect effect="spiro" id="path-effect4979-1" is_visible="true"/>
    <inkscape:path-effect effect="spiro" id="path-effect4979-3" is_visible="true"/>
    <inkscape:path-effect is_visible="true" id="path-effect5349" effect="spiro"/>
    <inkscape:path-effect is_visible="true" id="path-effect6480" effect="spiro"/>
    <inkscape:path-effect is_visible="true" id="path-effect5541" effect="spiro"/>
    <inkscape:path-effect effect="spiro" id="path-effect5040" is_visible="true"/>
    <inkscape:path-effect is_visible="true" id="path-effect5044" effect="spiro"/>
    <inkscape:path-effect effect="spiro" id="path-effect5040-3" is_visible="true"/>
    <inkscape:path-effect is_visible="true" id="path-effect5044-6" effect="spiro"/>
    <inkscape:path-effect effect="spiro" id="path-effect5040-36" is_visible="true"/>
    <inkscape:path-effect is_visible="true" id="path-effect5044-7" effect="spiro"/>
  </defs>
  <sodipodi:namedview id="base" pagecolor="#ffffff" bordercolor="#666666" borderopacity="1.0" inkscape:pageopacity="0.0" inkscape:pageshadow="2" inkscape:zoom="6.53125" inkscape:cx="21.844959" inkscape:cy="38.500897" inkscape:document-units="px" inkscape:current-layer="layer1" showgrid="true" units="px" inkscape:window-width="1309" inkscape:window-height="744" inkscape:window-x="57" inkscape:window-y="24" inkscape:window-maximized="1" inkscape:snap-global="true" showguides="false" inkscape:guide-bbox="true" inkscape:snap-bbox="true" inkscape:bbox-nodes="true" inkscape:snap-bbox-edge-midpoints="true" inkscape:snap-bbox-midpoints="false" inkscape:bbox-paths="false" inkscape:object-nodes="false">
    <inkscape:grid type="xygrid" id="grid4145" empspacing="4"/>
  </sodipodi:namedview>
  
  <g inkscape:label="Layer 1" inkscape:groupmode="layer" id="layer1" transform="translate(0,-1004.3622)">
    
    <g transform="scale(1.1477838,0.87124422)" style="font-style:normal;font-variant:normal;font-weight:normal;font-stretch:normal;font-size:12.37186241px;line-height:125%;font-family:'Roboto Condensed';-inkscape-font-specification:'Roboto Condensed, ';letter-spacing:0px;word-spacing:0px;fill:#000000;fill-opacity:1;stroke:none;stroke-width:1px;stroke-linecap:butt;stroke-linejoin:miter;stroke-opacity:1" id="text4981"/>
    <path style="color:#000000;font-style:normal;font-variant:normal;font-weight:normal;font-stretch:normal;font-size:medium;line-height:normal;font-family:sans-serif;text-indent:0;text-align:start;text-decoration:none;text-decoration-line:none;text-decoration-style:solid;text-decoration-color:#000000;letter-spacing:normal;word-spacing:normal;text-transform:none;direction:ltr;block-progression:tb;writing-mode:lr-tb;baseline-shift:baseline;text-anchor:start;white-space:normal;clip-rule:nonzero;display:inline;overflow:visible;visibility:visible;opacity:1;isolation:auto;mix-blend-mode:normal;color-interpolation:sRGB;color-interpolation-filters:linearRGB;solid-color:#000000;solid-opacity:1;fill:#000000;fill-opacity:1;fill-rule:nonzero;stroke:none;stroke-width:0.99999994;stroke-linecap:round;stroke-linejoin:round;stroke-miterlimit:4;stroke-dasharray:none;stroke-dashoffset:0;stroke-opacity:1;color-rendering:auto;image-rendering:auto;shape-rendering:auto;text-rendering:auto;enable-background:accumulate" d="M 24 0 C 10.751088 0 0 10.7511 0 24 C 0 37.2489 10.751088 48 24 48 C 37.248912 48 48 37.2489 48 24 C 48 10.7511 37.248912 0 24 0 z M 24 1 C 36.708472 1 47 11.2916 47 24 C 47 36.7085 36.708472 47 24 47 C 11.291528 47 1 36.7085 1 24 C 1 11.2916 11.291528 1 24 1 z M 22.5 8 C 22.223869 8 22.000028 8.2239 22 8.5 L 22 9.8125 C 19.265637 10.6309 17.229659 13.0576 17.021484 16 L 16.5 16 C 16.223869 16 16.000028 16.2239 16 16.5 L 16 18.5 C 16.000028 18.7761 16.223869 19 16.5 19 L 17.015625 19 C 17.108335 21.1488 18.082957 23.064303 19.580078 24.345703 C 15.165269 26.098203 12.046581 30.397128 12.013672 35.423828 C 12.013497 35.450828 12 35.473 12 35.5 C 12.000447 35.7163 12.139943 35.907809 12.345703 35.974609 C 12.361733 35.984609 12.378031 35.984281 12.394531 35.988281 C 12.427251 35.998281 12.460621 35.999 12.494141 36 L 12.5 36 L 35.5 36 C 35.776131 36 35.999972 35.7761 36 35.5 C 36 30.4344 32.854338 26.100297 28.408203 24.341797 C 29.89377 23.059397 30.860231 21.1445 30.955078 19 L 31.5 19 C 31.776131 19 31.999972 18.7761 32 18.5 L 32 16.5 C 31.999972 16.2239 31.776131 16 31.5 16 L 30.978516 16 C 30.770295 13.0572 28.734363 10.6309 26 9.8125 L 26 8.5 C 25.999972 8.2239 25.776131 8 25.5 8 L 22.5 8 z M 23 9 L 25 9 L 25 12.212891 C 24.693 12.077491 24.355524 12 24 12 C 23.644476 12 23.307 12.076991 23 12.212891 L 23 9 z M 26 10.863281 C 26.540345 11.055081 27.043437 11.316884 27.5 11.646484 L 27.5 13.619141 C 27.4904 14.295341 28.509563 14.295341 28.5 13.619141 L 28.5 12.554688 C 29.322108 13.490987 29.847257 14.6819 29.957031 16 L 28.5 16 C 27.823839 15.99 27.823839 17.0096 28.5 17 L 31 17 L 31 18 L 17 18 L 17 17 L 19.5 17 C 20.176161 17.01 20.176161 15.9904 19.5 16 L 18.042969 16 C 18.152731 14.682 18.678048 13.492941 19.5 12.556641 L 19.5 13.619141 C 19.4904 14.295341 20.509563 14.295341 20.5 13.619141 L 20.5 11.648438 C 20.95658 11.318837 21.459619 11.057134 22 10.865234 L 22 13.015625 C 21.689547 13.432225 21.5 13.9437 21.5 14.5 C 21.5 15.8748 22.62521 17 24 17 C 25.37479 17 26.5 15.8748 26.5 14.5 C 26.5 13.9437 26.310453 13.432225 26 13.015625 L 26 10.863281 z M 24 13 C 24.834349 13 25.5 13.6657 25.5 14.5 C 25.5 15.3344 24.834349 16 24 16 C 23.165651 16 22.5 15.3344 22.5 14.5 C 22.5 13.6657 23.165651 13 24 13 z M 18.015625 19 L 29.984375 19 C 29.819057 22.3583 27.199671 24.998047 24 24.998047 C 20.800329 24.998047 18.180943 22.3583 18.015625 19 z M 21.75 19.699219 A 0.75 0.75 0 0 0 21 20.449219 A 0.75 0.75 0 0 0 21.75 21.199219 A 0.75 0.75 0 0 0 22.5 20.449219 A 0.75 0.75 0 0 0 21.75 19.699219 z M 26.25 19.699219 A 0.75 0.75 0 0 0 25.5 20.449219 A 0.75 0.75 0 0 0 26.25 21.199219 A 0.75 0.75 0 0 0 27 20.449219 A 0.75 0.75 0 0 0 26.25 19.699219 z M 27.416016 25.050781 C 27.612875 25.114781 27.808472 25.180659 28 25.255859 L 28 31 L 20 31 L 20 25.253906 C 20.186833 25.180906 20.378407 25.117788 20.570312 25.054688 C 21.58362 25.653988 22.751913 26 24 26 C 25.246621 26 26.408237 25.650281 27.416016 25.050781 z M 19 25.710938 L 19 30.998047 L 18 30.998047 L 18 26.292969 C 18.321309 26.080669 18.655618 25.888638 19 25.710938 z M 29 25.710938 C 29.344258 25.888537 29.678804 26.082822 30 26.294922 L 30 31 L 29 31 L 29 25.710938 z M 17 27.041016 L 17 30.998047 L 16.5 30.998047 C 16.223869 30.998047 16.000028 31.221947 16 31.498047 L 16 34.998047 L 13.083984 34.998047 C 13.233268 31.802247 14.716324 28.960516 17 27.041016 z M 31 27.041016 C 33.283562 28.960316 34.766704 31.801947 34.916016 34.998047 L 32 34.998047 L 32 31.498047 L 31.992188 31.507812 C 31.997688 31.230812 31.77702 31.002347 31.5 30.998047 L 31 30.998047 L 31 27.041016 z M 17 31.998047 L 31 31.998047 L 31 34.998047 L 17 34.998047 L 17 31.998047 z " transform="translate(0,1004.3622)" id="path5036"/>
  </g>

	<metadata>
		<rdf:RDF xmlns:rdf="http://www.w3.org/1999/02/22-rdf-syntax-ns#" xmlns:rdfs="http://www.w3.org/2000/01/rdf-schema#" xmlns:dc="http://purl.org/dc/elements/1.1/">
			<rdf:Description about="https://iconscout.com/legal#licenses" dc:title="construction-civil-engineer-helmet-protection-safety" dc:description="construction-civil-engineer-helmet-protection-safety" dc:publisher="Iconscout" dc:date="2017-03-09" dc:format="image/svg+xml" dc:language="en">
				<dc:creator>
					<rdf:Bag>
						<rdf:li>Devendra Karkar</rdf:li>
					</rdf:Bag>
				</dc:creator>
			</rdf:Description>
		</rdf:RDF>
    </metadata></svg>
